<svg width="58" height="58" viewBox="0 0 58 58" fill="none" xmlns="http://www.w3.org/2000/svg">
<path d="M12.0548 28.8817H15.0148L24.7681 41.9733C25.2909 42.7224 25.6648 43.3226 25.9115 43.9972H25.9612C25.9364 43.3226 25.9115 42.6727 25.9115 41.7235V28.8817H28.1254V46.6199H25.3143L15.3872 33.3794C14.8907 32.6303 14.5169 32.0564 14.2672 31.4066H14.2175C14.2423 32.0301 14.2672 32.6799 14.2672 33.5809V46.6228H12.0533V28.8832L12.0548 28.8817Z" fill="white"/>
<path d="M37.5545 39.85L30.1902 28.8817H33.0509L38.3007 36.8257C38.5504 37.2244 38.6979 37.5252 38.7738 37.7997H38.8235C38.8979 37.5252 39.0469 37.2244 39.2966 36.8257L44.596 28.8817H47.4567L40.018 39.85V46.6199H37.5545V39.85Z" fill="white"/>
<path fill-rule="evenodd" clip-rule="evenodd" d="M29 2.2766C14.2408 2.2766 2.2766 14.2408 2.2766 29C2.2766 43.7592 14.2408 55.7234 29 55.7234C43.7592 55.7234 55.7234 43.7592 55.7234 29C55.7234 14.2408 43.7592 2.2766 29 2.2766ZM0 29C0 12.9835 12.9835 0 29 0C45.0165 0 58 12.9835 58 29C58 45.0165 45.0165 58 29 58C12.9835 58 0 45.0165 0 29Z" fill="white"/>
<path d="M25.2587 23.4918V18.832H26.4327V23.4918H25.2587Z" fill="white"/>
<path d="M28.8232 18.8305H30.1098L32.0447 21.5014C32.1688 21.6854 32.2871 21.8957 32.3601 22.0651H32.3732V18.829H33.4509V23.4888H32.2301L30.2222 20.7844C30.1112 20.6077 29.9798 20.3974 29.9141 20.2397H29.8936C29.9009 20.4368 29.9009 20.6398 29.9009 20.8632V23.4888H28.8232V18.832V18.8305Z" fill="white"/>
<path d="M9.81319 23.9225C8.4668 23.3165 7.94839 22.0066 8.59384 20.5726C9.11663 19.4146 10.0045 18.9137 10.8763 19.086L10.5988 20.244C10.1199 20.1593 9.64525 20.3623 9.38094 20.9494C9.02755 21.7335 9.38532 22.4418 10.2776 22.8434C11.1581 23.2406 11.9219 23.0449 12.2796 22.2505C12.6097 21.5189 12.3337 20.9012 11.9073 20.6967L11.8415 20.6675L11.2808 21.9117L10.5448 21.5802L11.5334 19.3854L13.9035 20.4543L13.5632 21.2078L12.8783 20.9552C13.2317 21.3991 13.3223 22.0636 12.9689 22.8463C12.3833 24.143 11.1391 24.5227 9.81173 23.924L9.81319 23.9225Z" fill="white"/>
<path d="M16.3801 16.0939L17.0343 16.6532L14.6131 19.4789L11.0748 16.4473L13.4668 13.6537L14.1152 14.2087L12.4577 16.1436L13.2302 16.8051L14.8176 14.9519L15.4455 15.4908L13.8582 17.3439L14.6949 18.0609L16.3801 16.0939Z" fill="white"/>
<path d="M15.4061 11.9043L16.4517 11.2413L19.4555 12.4972C19.6556 12.5877 19.8644 12.7045 20.0148 12.8126L20.025 12.8053L19.6935 12.284L18.2917 10.0731L19.1664 9.51672L21.662 13.4522L20.669 14.0816L17.5878 12.8345C17.4009 12.7425 17.1833 12.6315 17.0446 12.5337L17.0285 12.5439C17.1395 12.7075 17.2475 12.8783 17.3673 13.0682L18.7736 15.2849L17.8988 15.8398L15.4032 11.9043H15.4061Z" fill="white"/>
<path d="M26.3044 11.1946L26.5234 12.027L22.9238 12.9747L21.7366 8.46828L25.2924 7.53223L25.51 8.35729L23.0479 9.00566L23.3064 9.9899L25.6648 9.36782L25.875 10.1681L23.5167 10.7901L23.7985 11.8562L26.3044 11.1946Z" fill="white"/>
<path d="M29.8614 10.2337L28.9006 10.1972L28.8363 11.9364L27.7061 11.8941L27.8798 7.23865L30.3171 7.32919C31.5612 7.37591 32.011 8.04327 31.9803 8.83621C31.9584 9.39404 31.662 9.92851 30.9903 10.1198L31.992 12.0547L30.742 12.008L29.8585 10.2352L29.8614 10.2337ZM28.9312 9.41157L29.9914 9.45245C30.5536 9.47436 30.7785 9.19252 30.7931 8.80554C30.8063 8.43901 30.6033 8.15425 30.0411 8.13381L28.9809 8.09292L28.9312 9.41157Z" fill="white"/>
<path d="M36.3103 12.4198L34.3841 11.7087L33.6759 12.5308L32.5734 12.1234L35.9773 8.41278L37.2405 8.87862L37.4113 13.9093L36.3088 13.5019L36.3117 12.4184L36.3103 12.4198ZM36.3103 11.567V10.3228C36.2971 9.96069 36.2884 9.72705 36.3336 9.40724L36.3219 9.40286C36.1525 9.67594 35.9948 9.84825 35.748 10.1155L34.9405 11.0632L36.3103 11.5685V11.567Z" fill="white"/>
<path d="M43.4159 13.7677L42.1746 12.8331L39.9331 15.8121L39.0292 15.1316L41.2707 12.1526L40.0295 11.218L40.5888 10.4733L43.9767 13.0229L43.4174 13.7692L43.4159 13.7677Z" fill="white"/>
<path d="M44.7726 19.8308L44.095 20.3594L41.8038 17.4257L45.4765 14.5562L47.7399 17.4549L47.0667 17.9806L45.4984 15.9742L44.6967 16.6006L46.1979 18.5224L45.5451 19.032L44.0439 17.1103L43.175 17.7893L44.7726 19.8308Z" fill="white"/>
<path d="M49.0439 19.6585L49.8734 21.7292C50.4195 23.096 49.9712 24.3037 48.6613 24.828C47.3324 25.3595 46.0853 24.8046 45.5407 23.4436L44.7185 21.3904L49.0454 19.6585H49.0439ZM46.2956 23.0522C46.614 23.851 47.3879 24.0657 48.2159 23.7342C49.0264 23.41 49.3652 22.7368 49.0497 21.9497L48.6788 21.0224L45.9247 22.1249L46.2942 23.0522H46.2956Z" fill="white"/>
</svg>
