<svg width="140" height="100" viewBox="0 0 140 100" fill="none" xmlns="http://www.w3.org/2000/svg">
<g clip-path="url(#clip0_101_13)">
<path d="M47.1067 33.6323C44.4299 31.3736 41.8106 31.0055 39.9913 31.0055H13.8853C12.2544 31.0055 8.33818 31.452 6.26325 33.7327C3.87213 36.5383 4.00804 39.0058 4 41.6448V68.8188H14.9851V41.6448H21.1745V68.8188H32.1595V41.6448H38.4157V68.8188H49.4006V41.6448C49.4006 40.4534 49.4006 35.5679 47.1067 33.6323Z" fill="#BBBBBB"/>
<path d="M66.374 41.6467H82.55V58.9123H66.374V41.6467ZM95.4199 54.2289C94.5194 52.7639 92.0512 48.9513 83.0033 48.9234C84.5169 48.8918 89.4493 48.573 92.0029 45.8182C93.5978 44.0974 94.3551 42.7175 94.3544 40.1523C94.3544 37.8808 93.4152 35.8743 93.0899 35.4226C91.692 33.4819 89.8281 32.2102 87.3876 31.6747C84.4953 31.0404 82.8383 31.0055 82.55 31.0055H55.1214V68.8188H88.2973C88.2973 68.8188 93.2496 67.8401 95.4864 63.8552C97.6277 60.0404 96.3354 55.718 95.4199 54.2289Z" fill="#BBBBBB"/>
<path d="M110.975 58.9806V41.5575H136.8V31.0055H109.266C109.266 31.0055 100.057 30.5022 99.6907 39.1021V60.5534H99.6917C99.6897 67.3866 105.405 68.8188 105.405 68.8188H137V58.9806" fill="#BBBBBB"/>
</g>
<defs>
<clipPath id="clip0_101_13">
<rect width="140" height="100" fill="white"/>
</clipPath>
</defs>
</svg>
