<svg width="140" height="100" viewBox="0 0 140 100" fill="none" xmlns="http://www.w3.org/2000/svg">
<path d="M140 0H0V100H140V0Z"/>
<path d="M8.63008 47.2355V54.3818C8.63008 54.9552 8.66847 55.3753 8.78357 55.5665C8.82194 55.6813 8.9753 55.7576 9.24389 55.7958C9.47399 55.9104 9.97266 55.9869 10.7397 56.0251C11.4685 56.0632 12.5041 56.1397 13.8083 56.1397V56.4455H0V56.1397C1.07398 56.1397 1.99448 56.1014 2.68488 56.0251C3.3753 55.9869 3.87399 55.8722 4.10407 55.7958C4.33429 55.7195 4.48764 55.6048 4.56439 55.5665C4.6795 55.4136 4.71786 55.0315 4.71786 54.3818V38.0254C4.71786 37.4522 4.6795 37.0701 4.56439 36.8789C4.52601 36.7643 4.41091 36.7261 4.18081 36.6497C3.60552 36.4204 2.14796 36.3057 0.0383706 36.3057V36H12.4275C14.9589 36 16.9535 36.5732 18.4109 37.7197C19.7918 38.7898 20.4822 40.242 20.4822 41.9999C20.4822 43.1845 19.9453 44.331 18.9096 45.3246C17.5672 46.5476 15.8028 47.159 13.5781 47.159H8.63008V47.2355ZM8.63008 46.9298H11.852C13.6164 46.9298 14.8821 46.4712 15.5727 45.554C16.1863 44.7514 16.4548 43.5285 16.4548 41.8088C16.4548 39.9745 16.0712 38.6368 15.2657 37.7197C14.4603 36.7643 13.2712 36.3439 11.5836 36.3439H10.0493C9.58909 36.3439 9.24389 36.3822 9.05204 36.4586C8.86032 36.4969 8.70683 36.6497 8.66847 36.8408C8.66847 37.0318 8.63008 37.414 8.63008 38.0636V46.9298Z" fill="#BBBBBB"/>
<path d="M24.0877 49.9488C24.0877 52.2034 24.3178 53.885 24.8931 54.8787C25.4301 55.9104 26.2739 56.4072 27.3864 56.4072C28.5752 56.4072 29.5727 56.0251 30.4547 55.2225C31.5288 54.2673 32.104 52.9678 32.104 51.3245H32.3343C32.3343 52.8914 31.8355 54.229 30.8 55.2225C29.7643 56.2544 28.4219 56.7511 26.7343 56.7511C25.3151 56.7511 24.0109 56.2162 22.8603 55.108C21.4795 53.8085 20.789 52.2034 20.789 50.1398C20.789 47.9234 21.4795 46.089 22.8219 44.7132C24.0109 43.5285 25.3535 42.8788 26.8493 42.8788C28.2301 42.8788 29.3808 43.261 30.2631 44.0636C31.6056 45.2482 32.296 47.159 32.296 49.8723H24.1259V49.9488H24.0877ZM29.5343 49.6048C29.5343 47.5412 29.3424 46.0125 28.9973 44.9042C28.652 43.8342 28.0384 43.261 27.2328 43.261C26.0823 43.261 25.2384 43.7578 24.8165 44.7897C24.3178 45.8215 24.1259 47.3883 24.1259 49.5666H29.5343V49.6048Z" fill="#BBBBBB"/>
<path d="M39.0848 48.7259V54.9934C39.0848 55.4518 39.1232 55.6813 39.2 55.8341C39.2384 55.8722 39.3535 55.9869 39.5069 56.0251C39.6603 56.0632 39.9672 56.1397 40.3507 56.1779C40.7343 56.2162 41.1561 56.2162 41.4247 56.2162V56.522H33.2931V56.2162C33.7535 56.2162 34.252 56.2162 34.6739 56.1779C35.1343 56.1397 35.5178 56.0251 35.9013 55.9486C36.0547 55.8341 36.0931 55.5666 36.0931 54.9934V45.3246C36.0931 45.1336 36.0931 44.9425 36.0931 44.7514C36.0931 44.5604 36.0547 44.4075 35.9397 44.2928L35.748 43.9871C35.5561 43.8343 34.7123 43.7578 33.3315 43.7578V43.4521L39.0848 42.9553V47.0061C39.2384 46.1272 39.4685 45.2864 39.9288 44.5985C40.504 43.6049 41.1561 43.1082 41.8083 43.0317C42.4603 42.9935 42.8822 42.917 43.1123 42.917C44.4547 42.917 45.4904 43.2992 46.296 44.14C46.948 44.8279 47.2931 45.6303 47.2931 46.5476V54.9934C47.2931 55.4518 47.3315 55.6813 47.4083 55.8341C47.4465 55.8722 47.5616 55.9869 47.7152 56.0251C47.8685 56.0632 48.2136 56.1397 48.6739 56.1779C49.1343 56.2162 49.5561 56.2162 49.9781 56.2162V56.522H41.8083V56.2162C42.1535 56.2162 42.5369 56.2162 42.9973 56.1779C43.4576 56.1397 43.8411 56.0251 44.1864 55.9486C44.3397 55.8341 44.3781 55.5666 44.3781 54.9934V46.8915C44.3781 45.8597 44.2631 45.1336 44.148 44.5604C43.8411 43.6814 43.3424 43.2228 42.6136 43.2228C41.6163 43.2228 40.8493 43.7961 40.2355 45.0571C39.6219 46.0125 39.2768 47.2355 39.0848 48.7259Z" fill="#BBBBBB"/>
<path d="M59.5288 49.7578V51.2481C59.5288 51.7449 59.5288 52.2036 59.5672 52.6238C59.5672 54.1143 59.4137 55.146 59.0685 55.6813C58.6083 56.4074 57.6877 56.8276 56.3453 56.8276C55.0411 56.8276 54.1206 56.522 53.5069 55.8722C52.9315 55.2608 52.6248 54.3818 52.6248 53.2736V44.2546H50.0931V43.9489C51.8192 43.4904 53.1616 42.5349 54.0438 40.9299C54.7344 39.6306 55.1177 38.2166 55.1177 36.6496H55.6549V43.3757H59.3369V44.331H55.6549V52.9678C55.6549 54.1143 55.6931 54.8404 55.8081 55.1843C56 55.9869 56.4987 56.3692 57.1891 56.3692C58.0329 56.3692 58.6083 55.9104 58.8768 54.9934C59.0685 54.3436 59.1837 53.1589 59.1837 51.401V49.8723H59.4904V49.7578H59.5288Z" fill="#BBBBBB"/>
<path d="M68.5808 47.2737V45.4011C68.5808 44.5603 68.4274 43.9871 68.1973 43.6814C67.9672 43.3757 67.3535 43.2228 66.4712 43.2228C65.7424 43.2228 65.0904 43.3757 64.5535 43.6814C64.0165 43.9871 63.6712 44.331 63.4795 44.8279C63.5944 44.8279 63.6712 44.7897 63.7864 44.7897C64.1699 44.7897 64.5152 44.9425 64.7835 45.2864C65.0136 45.5921 65.1672 45.9743 65.1672 46.3565C65.1672 46.8151 65.0136 47.1973 64.6685 47.503C64.3616 47.8087 63.9781 47.9616 63.5178 47.9616C63.2109 47.9616 62.9808 47.8469 62.7891 47.7704C62.1369 47.3883 61.8301 46.8915 61.8301 46.2419C61.8301 45.9362 61.8685 45.5922 62.0219 45.2101C62.3288 44.3693 63.0576 43.7961 64.2465 43.3757C65.0904 43.07 65.9727 42.9935 66.8163 42.9935C68.3891 42.9935 69.5781 43.2992 70.3835 43.8724C71.1123 44.4075 71.4576 45.0572 71.4576 45.8597V52.8532C71.4576 54.1525 71.496 54.9169 71.5727 55.2225C71.7261 55.9486 72.1096 56.2927 72.7232 56.2927C73.2603 56.2927 73.6823 55.9869 73.8739 55.4518C74.0657 54.8787 74.1808 54.0761 74.1808 52.9678C74.1808 52.6621 74.1808 52.3946 74.1808 52.0889C74.1808 51.7832 74.1808 51.5157 74.1808 51.1335V50.8277H74.5643V52.2036C74.5643 52.6621 74.5643 53.0824 74.6027 53.5029C74.6027 54.7257 74.4493 55.5665 74.1424 55.9869C73.7589 56.522 72.9535 56.7893 71.8027 56.7893C70.8439 56.7893 70.2301 56.6365 69.7699 56.2927C69.2328 55.9104 68.8877 55.2608 68.7343 54.3818C68.2739 55.4136 67.5835 56.1014 66.7013 56.4455C66.1643 56.6365 65.4739 56.7512 64.5535 56.7512C63.6712 56.7512 62.8657 56.56 62.2136 56.1014C61.3315 55.5283 60.8328 54.6874 60.8328 53.5029C60.8328 52.3564 61.2931 51.3628 62.1753 50.5984C63.0576 49.8723 64.1699 49.4138 65.3973 49.2991C66.7013 49.1844 67.5451 48.9934 67.9672 48.8023C68.3507 48.6112 68.5808 48.0761 68.5808 47.2737ZM68.504 53.0443V48.8023C68.2739 49.1462 67.852 49.3374 67.3535 49.4519C66.8547 49.5666 66.3561 49.6048 65.9343 49.6431C65.3589 49.7959 64.8603 50.1398 64.4384 50.6749C63.9781 51.3245 63.7864 52.2036 63.7864 53.3499C63.7864 54.5729 63.9013 55.4136 64.1315 55.8722C64.3616 56.3309 64.7835 56.522 65.2822 56.522C66.0877 56.522 66.8163 56.1779 67.4685 55.5283C68.1589 54.8022 68.504 53.9996 68.504 53.0443Z" fill="#BBBBBB"/>
<path d="M78.1315 51.1336C77.4411 50.7896 76.9424 50.331 76.5589 49.7959C76.1753 49.2609 75.9835 48.573 75.9835 47.7705C75.9835 46.4329 76.5589 45.2482 77.8248 44.3311C78.9753 43.4522 80.2027 43.0318 81.5453 43.0318C81.9288 43.0318 82.3891 43.07 82.8493 43.1846C83.3096 43.2992 83.6931 43.4139 84.0768 43.5667V42.8406C84.0768 41.847 84.2685 41.1974 84.6136 40.8534C84.9589 40.5477 85.496 40.3948 86.1864 40.3948C86.4931 40.3948 86.7616 40.5095 87.0301 40.7387C87.2603 40.9299 87.3753 41.2356 87.3753 41.5795C87.3753 42.3057 87.0301 42.726 86.3397 42.726C85.6109 42.726 85.2657 42.3821 85.2657 41.6942C85.2657 41.5413 85.2657 41.4649 85.304 41.3503C85.3424 41.2356 85.4192 41.1591 85.4576 41.0064C84.9973 41.0446 84.7672 41.2356 84.6136 41.5413C84.4603 41.847 84.4219 42.2674 84.4219 42.7643C84.4219 43.2228 84.4603 43.5667 84.4603 43.7579C85.304 44.14 85.9561 44.7132 86.4549 45.3247C86.9535 45.9743 87.1453 46.7387 87.1453 47.5795C87.1453 48.8788 86.5699 49.9488 85.304 50.7514C84.2301 51.4775 82.9645 51.8978 81.5835 51.8978C80.5864 51.8978 79.704 51.745 78.8219 51.401C78.0931 51.401 77.4795 51.5157 77.0576 51.745C76.4823 52.0507 76.1753 52.5858 76.1753 53.3117C76.1753 53.6177 76.4056 53.8468 76.9808 54.0378C77.4795 54.229 78.4768 54.3436 79.9344 54.3436H81.7753C83.6549 54.3436 85.1123 54.5729 86.0712 55.0697C87.2987 55.7194 87.9123 56.7513 87.9123 58.2416C87.9123 59.8086 87.3753 60.9931 86.2248 61.8339C85.0739 62.6748 83.6549 63.1332 81.852 63.1332C79.704 63.1332 77.9781 62.7894 76.7123 62.0632C75.4083 61.3754 74.7944 60.5347 74.7944 59.6556C74.7944 59.0824 75.1397 58.5856 75.8301 58.1651C76.3288 57.8595 77.0576 57.6302 78.0931 57.3244C77.1344 56.9806 76.4439 56.6365 76.0219 56.2544C75.4466 55.7194 75.0631 55.0315 75.0631 54.1908C75.0631 53.3117 75.2931 52.5475 75.8685 52.0125C76.4056 51.3628 77.1344 51.1336 78.1315 51.1336ZM81.9288 62.8658C83.348 62.8658 84.4603 62.5601 85.2657 61.9868C86.0712 61.4136 86.4549 60.6492 86.4549 59.8086C86.4549 58.7767 86.1096 58.0888 85.4576 57.7449C84.8056 57.4009 83.6165 57.2098 81.8904 57.2098C79.896 57.2098 78.5152 57.4391 77.7864 57.8977C77.2109 58.2798 76.8274 58.9295 76.8274 59.885C76.8274 60.764 77.0576 61.4518 77.5562 61.9104C78.4384 62.5218 79.8576 62.8658 81.9288 62.8658ZM84.2301 47.4648C84.2301 46.1272 84.0384 45.0954 83.6931 44.4458C83.3096 43.6432 82.5424 43.261 81.5069 43.261C80.548 43.261 79.8576 43.6432 79.4357 44.4075C78.9753 45.1336 78.7835 46.1655 78.7835 47.4648C78.7835 48.9552 78.9753 50.0253 79.3205 50.6749C79.6657 51.3246 80.3944 51.6303 81.5069 51.6303C82.504 51.6303 83.1561 51.2863 83.5781 50.6367C84.0384 49.9488 84.2301 48.917 84.2301 47.4648Z" fill="#BBBBBB"/>
<path d="M92.0931 45.0571C92.0931 44.5985 92.0547 44.3693 91.9397 44.2546C91.7864 44.0636 91.6328 43.9106 91.556 43.8724C91.1725 43.7578 90.3288 43.7196 88.948 43.7196V43.4139L95.0848 42.917V46.968C95.2 46.089 95.4685 45.2864 95.9672 44.484C96.6576 43.4521 97.5397 42.917 98.5752 42.917C98.9589 42.917 99.4192 43.07 99.8794 43.2992C100.34 43.5285 100.685 43.8724 100.838 44.2928C100.992 44.675 101.069 45.0189 101.069 45.3629C101.069 46.2037 100.723 46.7769 100.033 47.0826C99.8793 47.1972 99.6493 47.2355 99.3424 47.2355C98.8821 47.2355 98.5369 47.0826 98.2685 46.7769C97.9616 46.4711 97.8081 46.0507 97.8081 45.4393C97.8081 45.0571 97.9616 44.7132 98.2685 44.2928C98.5752 43.9106 98.9205 43.7578 99.2656 43.8343C99.1123 43.3757 98.7672 43.1464 98.1151 43.1464C97.5397 43.1464 96.8877 43.6049 96.2739 44.484C95.4685 45.6303 95.0848 47.0826 95.0848 48.917V54.8404C95.0848 55.299 95.1232 55.5283 95.2 55.6813C95.2384 55.7194 95.3534 55.8341 95.5069 55.8722C95.9672 56.0251 96.8877 56.1015 98.2685 56.1015V56.4072H88.948V56.1015C89.5232 56.1015 90.1369 56.1015 90.6357 56.0634C91.1342 56.0251 91.5944 55.9104 91.9397 55.8341C92.0931 55.7194 92.1315 55.4518 92.1315 54.8787V45.0571H92.0931Z" fill="#BBBBBB"/>
<path d="M109.737 47.2737V45.4011C109.737 44.5603 109.584 43.9871 109.353 43.6814C109.124 43.3757 108.51 43.2228 107.627 43.2228C106.898 43.2228 106.246 43.3757 105.71 43.6814C105.173 43.9871 104.827 44.331 104.636 44.8279C104.751 44.8279 104.827 44.7897 104.942 44.7897C105.326 44.7897 105.671 44.9425 105.94 45.2864C106.17 45.5921 106.323 45.9743 106.323 46.3565C106.323 46.8151 106.17 47.1973 105.825 47.503C105.518 47.8087 105.134 47.9616 104.674 47.9616C104.367 47.9616 104.137 47.8469 103.945 47.7704C103.293 47.3883 102.986 46.8915 102.986 46.2419C102.986 45.9362 103.025 45.5922 103.178 45.2101C103.485 44.3693 104.214 43.7961 105.403 43.3757C106.246 43.07 107.129 42.9935 107.973 42.9935C109.545 42.9935 110.735 43.2992 111.54 43.8724C112.268 44.4075 112.613 45.0572 112.613 45.8597V52.8532C112.613 54.1525 112.652 54.9169 112.728 55.2225C112.883 55.9486 113.265 56.2927 113.88 56.2927C114.416 56.2927 114.839 55.9869 115.031 55.4518C115.221 54.8787 115.337 54.0761 115.337 52.9678C115.337 52.6621 115.337 52.3946 115.337 52.0889C115.337 51.7832 115.337 51.5157 115.337 51.1335V50.8277H115.72V52.2036C115.72 52.6621 115.72 53.0824 115.759 53.5029C115.759 54.7257 115.605 55.5665 115.299 55.9869C114.915 56.522 114.109 56.7893 112.959 56.7893C112 56.7893 111.387 56.6365 110.925 56.2927C110.389 55.9104 110.044 55.2608 109.891 54.3818C109.431 55.4136 108.74 56.1014 107.858 56.4455C107.321 56.6365 106.63 56.7512 105.71 56.7512C104.827 56.7512 104.022 56.56 103.37 56.1014C102.488 55.5283 101.989 54.6874 101.989 53.5029C101.989 52.3564 102.449 51.3628 103.331 50.5984C104.214 49.8723 105.326 49.4138 106.553 49.2991C107.858 49.1844 108.701 48.9934 109.124 48.8023C109.545 48.6112 109.737 48.0761 109.737 47.2737ZM109.621 53.0443V48.8023C109.392 49.1462 108.969 49.3374 108.471 49.4519C107.973 49.5666 107.474 49.6048 107.052 49.6431C106.477 49.7959 105.978 50.1398 105.556 50.6749C105.096 51.3245 104.904 52.2036 104.904 53.3499C104.904 54.5729 105.019 55.4136 105.249 55.8722C105.479 56.3309 105.901 56.522 106.4 56.522C107.206 56.522 107.934 56.1779 108.586 55.5283C109.353 54.8022 109.621 53.9996 109.621 53.0443Z" fill="#BBBBBB"/>
<path d="M129.797 46.7768C129.951 45.7832 130.181 45.0571 130.527 44.4457C131.063 43.5667 131.753 43.0317 132.712 42.917C132.865 42.917 133.019 42.917 133.211 42.8788C133.403 42.8788 133.517 42.8406 133.595 42.8406C134.899 42.8406 135.972 43.2227 136.701 44.0635C137.353 44.7514 137.699 45.554 137.699 46.4711V54.9169C137.699 55.299 137.737 55.6048 137.813 55.7193C137.852 55.8339 137.967 55.8722 138.12 55.9486C138.275 55.9869 138.58 56.0634 138.964 56.1014C139.348 56.1397 139.693 56.1397 140 56.1397V56.4455H132.483V56.1397C132.98 56.1397 133.364 56.1397 133.672 56.1014C133.979 56.0634 134.247 55.9486 134.553 55.7958C134.707 55.6813 134.745 55.4136 134.745 54.9169V46.8533C134.745 45.8597 134.631 45.0954 134.515 44.5222C134.208 43.6431 133.709 43.1845 133.019 43.1845C132.291 43.1845 131.639 43.5285 131.14 44.2165C130.603 45.0189 130.143 46.4329 129.836 48.4965V54.8787C129.836 55.3373 129.873 55.5665 129.951 55.7193C129.989 55.7576 130.104 55.8339 130.257 55.9104C130.411 55.9486 130.641 56.0251 131.063 56.0634C131.447 56.1014 131.792 56.1779 132.137 56.1779V56.4837H124.543V56.1779C125.348 56.1779 125.961 56.1397 126.421 55.9486L126.652 55.8339C126.805 55.7193 126.844 55.4518 126.844 54.8787V46.8151C126.844 45.7832 126.728 45.0571 126.613 44.484C126.307 43.6049 125.808 43.1464 125.08 43.1464C124.12 43.1464 123.392 43.7196 122.855 44.9807C122.509 45.8215 122.203 47.0443 122.011 48.6495V54.9169C122.011 55.3755 122.049 55.6048 122.127 55.7576C122.164 55.7958 122.28 55.9104 122.433 55.9486C122.587 55.9869 122.893 56.0634 123.276 56.1014C123.66 56.1397 124.005 56.1397 124.312 56.1397V56.4455H116.181V56.1397C116.641 56.1397 117.063 56.1397 117.524 56.1014C117.984 56.0634 118.367 55.9486 118.751 55.8722C118.904 55.7576 118.943 55.4901 118.943 54.9169V45.2864C118.943 45.0954 118.943 44.9043 118.943 44.7132C118.943 44.5222 118.904 44.3693 118.789 44.2546C118.636 44.0635 118.483 43.9106 118.405 43.8725C118.099 43.7578 117.369 43.7196 116.219 43.7196V43.4903L121.972 42.9553V47.0062C122.127 45.9743 122.356 45.1718 122.663 44.5985C123.161 43.6049 123.891 43.07 124.849 42.9553C125.041 42.9553 125.233 42.917 125.387 42.917C125.54 42.917 125.693 42.917 125.732 42.917C127.112 42.917 128.109 43.2992 128.839 44.0635C129.452 44.7514 129.797 45.6686 129.797 46.7768Z" fill="#BBBBBB"/>
</svg>
