<svg width="140" height="100" viewBox="0 0 140 100" fill="none" xmlns="http://www.w3.org/2000/svg">
<path d="M140 0H0V100H140V0Z"/>
<path fill-rule="evenodd" clip-rule="evenodd" d="M1.77281e-08 43.1306C-0.000171446 43.2042 1.24345 46.3551 2.76365 50.1324L5.52764 57L6.89643 56.9509L8.26522 56.9016L10.9099 50.3388C12.3644 46.7292 13.5994 43.6034 13.6545 43.3924C13.7527 43.0155 13.7272 43.0089 12.2027 43.0089C11.2027 43.0089 10.6071 43.0798 10.5272 43.2083C10.4589 43.3181 9.65973 45.4032 8.75132 47.842C7.84291 50.2807 7.02451 52.301 6.93295 52.3313C6.84122 52.3617 5.98887 50.2958 5.03897 47.7404L3.31181 43.0941L1.65599 43.0453C0.745351 43.0184 1.77281e-08 43.0568 1.77281e-08 43.1306ZM17.0906 43.1367C16.7708 43.6732 11.3246 56.6915 11.3816 56.7835C11.4215 56.8485 12.1091 56.8771 12.9093 56.8471L14.3642 56.7924L15.0005 55.2664L15.6368 53.7402L18.5707 53.7868L21.5044 53.8333L22.0979 55.3249L22.6911 56.8164H24.2869C25.8711 56.8164 25.8815 56.8137 25.7354 56.4329C25.6545 56.222 24.3747 53.2111 22.8916 49.7422C21.4084 46.2732 20.1567 43.3392 20.1099 43.222C20.0158 42.9867 17.2269 42.908 17.0906 43.1367ZM23.359 43.3123C23.4047 43.4863 24.5719 45.4063 25.9527 47.579L28.4631 51.5295V54.1446C28.4631 55.5828 28.4948 56.7915 28.5337 56.8306C28.5727 56.8696 29.2671 56.8768 30.0769 56.8466L31.5494 56.7914L31.5501 54.0339L31.5508 51.2763L34.1094 47.2764C35.5166 45.0764 36.6306 43.2163 36.5848 43.1427C36.539 43.069 35.7925 43.0092 34.9257 43.0096L33.3498 43.0104L31.7456 45.6529C30.8632 47.1063 30.0819 48.3321 30.009 48.3768C29.9363 48.4214 29.1536 47.2512 28.2697 45.7762L26.6627 43.0941L24.9692 43.045C23.3915 42.9993 23.2815 43.0176 23.359 43.3123ZM38.3509 43.1226C38.2879 43.185 38.2365 46.286 38.2365 50.0137V56.7914L39.709 56.8466C40.5188 56.8768 41.2133 56.8696 41.2522 56.8306C41.2911 56.7915 41.3228 54.8931 41.3228 52.6116C41.3228 50.3303 41.388 48.4637 41.4676 48.4637C41.5471 48.4637 42.9939 50.2796 44.6825 52.4991C46.3711 54.7187 47.835 56.6171 47.9357 56.7181C48.044 56.8268 48.6215 56.8785 49.3502 56.845L50.5819 56.7885V49.8987V43.0089H49.1244H47.667V47.0047C47.667 49.2286 47.5975 51.0432 47.5106 51.0967C47.4245 51.1495 45.9488 49.3513 44.2312 47.1008L41.1083 43.0089H39.7867C39.0599 43.0089 38.4136 43.06 38.3509 43.1226ZM53.2322 43.2223C53.1869 43.3397 53.1699 46.4488 53.1946 50.1313L53.2395 56.827H58.4692H63.6988V55.5006V54.1742L60.0123 54.1415L56.3259 54.1086V52.6926V51.2763L59.498 51.2453L62.67 51.2143L62.7201 49.928L62.77 48.6417L59.548 48.5953L56.3259 48.5489L56.2762 47.1426L56.2263 45.7363H59.9198H63.6131V44.3726V43.0089H58.4639C54.4981 43.0089 53.2956 43.058 53.2322 43.2223ZM66.1279 43.1226C66.065 43.185 66.0136 46.286 66.0136 50.0137V56.7914L67.4861 56.8466C68.2959 56.8768 68.9903 56.8696 69.0293 56.8306C69.0682 56.7915 69.0999 55.8136 69.0999 54.6572V52.5548H70.344H71.588L73.0163 54.6856L74.4446 56.8164H76.1446C77.0796 56.8164 77.8445 56.7521 77.8445 56.6736C77.8445 56.595 77.1429 55.5108 76.2854 54.2642C75.0958 52.535 74.7808 51.9635 74.9566 51.8529C75.0833 51.7731 75.2445 51.7066 75.3149 51.7051C75.603 51.6993 76.8657 50.4003 77.2118 49.7538C77.742 48.7637 77.7437 46.4599 77.2153 45.4806C76.5378 44.2255 75.5524 43.5404 73.9353 43.2001C72.969 42.9968 66.3208 42.9306 66.1279 43.1226ZM80.1519 43.2223C80.1067 43.3397 80.0897 46.4635 80.1144 50.1639L80.1593 56.8923H80.5879H81.0166L81.0617 51.1304C81.0969 46.6464 81.154 45.3838 81.3189 45.4376C81.4357 45.4758 82.6354 47.1119 83.9853 49.0734C85.3353 51.0351 86.5276 52.6401 86.6351 52.6401C86.7426 52.6401 87.9367 51.0292 89.2885 49.0603C90.6405 47.0915 91.8197 45.4554 91.909 45.4245C92.0084 45.3902 92.0889 47.5686 92.1165 51.0498L92.1617 56.7312L92.7209 56.7847L93.2802 56.8382L93.2353 49.9662L93.1905 43.0941H92.6919C92.2336 43.0941 91.9772 43.4101 89.5198 47.0038C88.0494 49.1542 86.7692 50.9366 86.6749 50.9647C86.5806 50.9929 85.2816 49.2142 83.7883 47.0124C81.484 43.6149 81.0096 43.0089 80.6536 43.0089C80.423 43.0089 80.1972 43.1048 80.1519 43.2223ZM95.7551 43.2223C95.7096 43.3397 95.6928 46.4273 95.7175 50.0834L95.7625 56.7312L100.778 56.7764L105.793 56.8215V56.3928V55.9641H101.335H96.877V53.1514V50.3388H100.821H104.764V49.9126V49.4865H100.821H96.877V46.7591V44.0317H101.249H105.622V43.5203V43.0089H100.73C96.969 43.0089 95.8184 43.0583 95.7551 43.2223ZM108.837 43.1059C108.766 43.1775 108.708 46.2917 108.708 50.0263V56.8164H111.776C114.347 56.8164 115.022 56.7619 115.941 56.4797C117.871 55.8869 119.272 54.6566 120.159 52.7761C120.579 51.8854 120.624 51.6023 120.619 49.9126C120.615 48.3295 120.554 47.9056 120.224 47.1908C119.421 45.4504 117.996 44.1638 116.121 43.4851C115.302 43.1891 114.621 43.1166 112.051 43.0525C110.354 43.0102 108.907 43.0343 108.837 43.1059ZM123.189 43.2223C123.144 43.3397 123.127 46.4635 123.152 50.1639L123.197 56.8923H123.625H124.054L124.099 49.9505L124.143 43.0089H123.708C123.468 43.0089 123.234 43.1048 123.189 43.2223ZM129.577 49.87C126.568 56.358 126.416 56.7366 126.768 56.8319C126.973 56.8873 127.226 56.8674 127.331 56.7876C127.437 56.7078 127.893 55.8378 128.345 54.8544L129.168 53.0662H133.261H137.354L138.118 54.7282C138.538 55.6423 138.948 56.5031 139.028 56.6412C139.232 56.9916 140 56.9695 140 56.6132C140 56.4598 138.611 53.3361 136.914 49.6716L133.828 43.0089H133.293H132.758L129.577 49.87ZM116.207 44.6094C118.994 45.8849 120.275 48.8481 119.349 51.8786C119.026 52.9339 118.824 53.2643 117.995 54.088C116.501 55.5741 115.62 55.854 112.394 55.8678L109.822 55.8789L109.777 50.1695C109.752 47.0294 109.772 44.3569 109.821 44.2306C109.891 44.0484 110.448 44.0134 112.524 44.0606C114.974 44.1164 115.205 44.1506 116.207 44.6094ZM135.134 48.184C136.065 50.2259 136.828 51.9297 136.828 51.9701C136.828 52.0104 135.246 52.0434 133.313 52.0434C131.066 52.0434 129.798 51.9814 129.798 51.8716C129.798 51.5124 133.141 44.3722 133.286 44.4205C133.37 44.4484 134.201 46.142 135.134 48.184ZM72.9419 45.8989C73.9928 46.1413 74.501 46.7609 74.501 47.7997C74.501 48.554 74.4324 48.723 73.9545 49.1474C73.3128 49.7176 72.51 49.8707 70.5573 49.7952L69.1856 49.7422L69.1364 47.9639C69.1093 46.9858 69.1263 46.0844 69.174 45.961C69.2769 45.6943 71.8699 45.6517 72.9419 45.8989ZM19.439 48.8241C19.8757 49.8661 20.2328 50.7866 20.2328 50.8696C20.2328 50.9526 19.453 51.0207 18.4999 51.0207C16.9222 51.0207 16.7767 50.9939 16.8759 50.7223C17.3547 49.4139 18.4385 46.9295 18.5307 46.9295C18.5937 46.9295 19.0024 47.782 19.439 48.8241Z" fill="#BBBBBB"/>
</svg>
