<svg width="140" height="100" viewBox="0 0 140 100" fill="none" xmlns="http://www.w3.org/2000/svg">
<path d="M140 0H0V100H140V0Z" />
<path d="M66.8537 28.5941H68.1187L68.2676 28H52.3428L52.194 28.5941H54.5008C56.51 28.5941 58.1472 30.0052 58.1472 32.753C58.1472 34.3126 57.4774 36.3178 56.3612 38.7686L46.0176 61.5682L43.4875 31.9361C43.2642 29.6339 44.4548 28.5941 47.0594 28.5941H48.5477L48.6965 28H26.2232L26 28.5941H27.4139C29.1998 28.5941 29.8696 29.7081 30.0184 31.7876L34.0368 70.1088H43.4875L59.3378 36.6149C61.7935 31.639 64.3236 28.5941 66.8537 28.5941ZM64.9933 70.2573C63.5794 70.2573 62.6865 69.8117 62.6865 67.4352C62.6865 64.4646 63.8027 58.5976 64.9933 53.2504C65.1421 55.7012 66.8537 58.152 69.3838 58.152C69.9791 58.152 70.5 58.0777 71.0209 58.0035C68.6396 68.1779 67.7467 70.2573 64.9933 70.2573ZM110.089 50.1313C113.065 50.1313 115 47.6805 115 44.8584C115 42.4819 113.288 40.6995 110.833 40.6995C106.442 40.6995 104.359 44.19 100.712 50.5769C99.9682 46.5665 98.1079 41.3679 93.4941 41.3679C88.2851 41.3679 82.2575 48.7945 76.7508 53.399C74.2207 55.5527 71.4674 56.8895 69.2349 56.8895C66.9281 56.8895 65.5886 54.5872 65.5886 50.5026C67.2258 43.8187 68.0443 42.1105 70.5744 42.1105C72.2859 42.1105 73.0301 43.076 73.0301 45.0812C73.0301 47.2349 72.5836 50.7997 71.6162 55.3299C74.0719 54.5872 77.7926 51.468 80.9181 48.1261C79.2809 44.19 75.709 41.5164 70.6488 41.5164C61.1982 41.5164 52.8637 49.9827 52.8637 59.4888C52.8637 66.0242 57.5518 71 64.8445 71C76.8997 71 81.9599 60.6028 81.9599 53.3247C81.9599 52.285 81.8854 51.5423 81.811 50.5769C83.6714 48.5717 86.0527 46.6408 87.9875 46.6408C90.2199 46.6408 92.0058 52.2107 93.7174 60.6028C92.1547 62.3109 90.592 65.5786 89.8478 66.1727C89.5502 63.2021 87.541 61.3454 84.9365 61.3454C81.9599 61.3454 79.9507 64.1675 79.9507 66.544C79.9507 69.2176 81.811 71 84.2667 71C89.4013 71 90.8152 66.1727 94.015 61.8653C94.9824 66.4698 97.2893 71 101.233 71C105.921 71 110.237 66.9896 112.47 64.1675L112.023 63.4991C110.61 64.9102 109.196 65.8014 107.559 65.8014C104.656 65.8014 102.573 59.563 101.01 51.9879C101.977 50.7254 103.466 47.4577 104.508 46.2694C105.177 47.6062 106.666 50.1313 110.089 50.1313Z" fill="#BBBBBB"/>
</svg>
